<svg viewBox="0 0 702.99 217.48"><path fill="currentColor" d="M575.39,179.15c0-25.19-16.35-31.89-37.79-33.77l-20.91-1.88c-18.22-1.61-26.26-8.31-26.26-21.71,0-15.81,11.79-24.92,32.96-24.92,14.2,0,26.26,3.75,36.18,10.99l9.11-9.11c-11.26-8.58-27.6-13.67-45.29-13.67-28.14,0-46.36,14.47-46.36,36.72,0,20.1,12.86,31.62,38.86,33.77l21.44,1.88c16.88,1.61,24.66,8.31,24.66,21.71,0,17.42-13.67,26.26-38.86,26.26-18.49,0-32.16-5.09-42.34-15.81l-9.38,9.38c13.13,12.6,29.75,18.49,52.26,18.49,31.62,0,51.72-14.74,51.72-38.33m-127.3-92.46h-13.67V215.87h13.67V86.69Zm1.61-61.64h-16.88v16.88h16.88V25.05Zm-49.58,190.82v-82.54c0-15.28-4.82-27.61-13.4-35.91-8.04-7.77-19.83-12.33-34.04-12.33-19.03,0-34.3,8.31-43.95,23.58-7.77-15.28-22.51-23.58-41.54-23.58-15.54,0-28.94,5.9-38.33,16.88v-15.28h-13.67V215.87h13.67v-80.13c0-24.39,13.4-38.59,36.45-38.59s35.65,13.67,35.65,38.59v80.13h13.67v-82.54c0-21.98,14.2-36.18,36.45-36.18s35.64,13.67,35.64,38.59v80.13h13.4Zm-233.43-45.02c0,12.06-2.41,20.1-7.24,24.66-9.11,8.84-20.37,9.92-32.16,9.92-23.32,0-33.77-8.04-33.77-25.19s10.72-26,32.96-26h40.2v16.62Zm13.67,45.02V127.43c0-27.07-16.08-42.35-50.12-42.35-20.9,0-34.57,4.56-45.56,19.83l9.92,8.58c8.04-11.79,17.42-16.35,35.64-16.35,26.27,0,36.45,10.99,36.45,31.62v14.47h-41.81c-28.14,0-45.02,13.67-45.02,37.25,0,9.65,3.49,19.03,9.38,25.19,8.31,8.58,19.03,11.79,38.06,11.79s28.41-3.48,39.4-14.47v12.86h13.67ZM82.54,97.41c-9.11-9.11-18.76-12.33-31.09-12.33-15.28,0-30.28,6.7-37.79,18.76v-17.15H0V215.87H13.67v-79.6c0-20.9,12.33-39.13,34.57-39.13,10.72,0,16.62,2.41,24.39,10.18l9.92-9.92Z"/><path fill="currentColor" d="M702.99,77.23V18.38c0-3.4-.21-6.59-2.02-9.88-1.7-3.29-3.72-5.2-7.01-8.5l-3.93,3.93c2.34,2.34,4.46,4.25,5.74,6.9,1.06,2.23,1.49,4.99,1.49,8.18v57.58c0,3.19-.42,5.95-1.49,8.18-1.28,2.66-3.4,4.57-5.74,6.91l3.93,3.93c3.29-3.29,5.31-5.21,7.01-8.5,1.81-3.29,2.02-6.48,2.02-9.88m-26.88-46.85c0,10.41-7.01,15.3-16.68,15.3h-22.31V15.09h22.31c9.67,0,16.68,4.89,16.68,15.3m6.59,55.24l-18.27-34.95c10.62-1.81,17.42-9.14,17.42-20.4,0-13.17-9.35-20.29-21.67-20.29h-28.79V85.63h5.74V50.78h20.82l18.06,34.85h6.69Zm-63.74,6.27c-2.34-2.34-4.46-4.25-5.74-6.9-1.06-2.23-1.59-5.1-1.59-8.39V19.02c0-3.29,.53-6.16,1.59-8.39,1.28-2.66,3.4-4.57,5.74-6.9l-3.72-3.72c-3.29,3.29-5.31,5.21-7.01,8.5s-2.02,6.48-2.02,9.88v58.86c0,3.4,.32,6.59,2.02,9.88,1.7,3.29,3.72,5.21,7.01,8.5l3.72-3.72Z"/></svg>
